<?xml version="1.0" encoding="UTF-8"?>
<svg id="Calque_1" data-name="Calque 1" xmlns="http://www.w3.org/2000/svg" viewBox="0 0 60 30">
  <defs>
    <style>
      .cls-1 {
        fill: #25395d;
      }
    </style>
  </defs>
  <g>
    <path class="cls-1" d="M34.15,10.58c-.57.29-1.19.3-1.74.04l-.21-.08c-.32-.12-.63-.28-.99-.27s-.67.11-.95.28l-.38.22c-.04-.24-.06-.43-.01-.74.16-.16.31-.23.45-.29.58-.26,1.21-.29,1.8-.05l.47.19c.44.17.91.18,1.34-.03.36-.18.71-.31,1.12-.3.31,0,.6.03.87.19-.05.25-.09.48-.11.76-.56-.23-1.13-.18-1.66.1Z"/>
    <path class="cls-1" d="M34.74,11.55l-.78.33c-.35.15-.77.17-1.14.08-.68-.16-1.18-.68-2.14-.39-.27.1-.51.23-.77.41-.06-.26-.07-.52-.04-.75.51-.45,1.35-.64,2.08-.42l.69.27c.43.17.88.16,1.3-.04.72-.34,1.29-.44,1.96-.15-.08.09-.16.13-.25.18l-.91.48Z"/>
    <path class="cls-1" d="M30.69,6.53c-.28-.22-.57-.46-1.3-.17-.26.1-.29.11-.36.14-.08.04-.14.06-.27.09,0,0-.01,0,0,0,.05-.76.7-1.59-.01-2.29-.55-.54-1.71-.72-2.91-.74,0,0-.01,0,0,.01l.31.43.47.62.55.73s0,0,0,0l.02.85s0,0,0,0l-1.67.1s0,0,0,0l-2.41-1.54s-.01,0-.01,0l-.77,3.39s0,.01.01,0l1.3-.36,2.08-.69s0,0,0,0l1.25,1.05s0,0,0,.01l-.87,1.42s0,0,0,0l-1.91.91s.09,0,.09,0c.87.05,2.16.14,3.01.02.59-.08,1.09-.18,1.49-.6.5-.53.26-1.32-.25-1.81,0,0,0-.01,0-.01.48-.09.64-.17.99-.47l.2-.18.34-.31c.23-.23.45-.41.81-.45,0,0,.01,0,0-.01-.05-.06-.14-.14-.2-.19Z"/>
    <path class="cls-1" d="M36.14,4.86c-.13-.4-.3-.77-.57-1.06-.19-.22-.38-.42-.61-.59-.44-.34-.99-.56-1.56-.65-.52-.08-1.03-.03-1.51.12-.18.04-.35.1-.52.18-.3.15-.58.34-.84.56-.18.14-.34.3-.47.5-.29.38-.49.81-.57,1.28-.05.32-.06.46-.06.76.57-.18,1.1.02,1.4.25.14.12.25.27.29.33.04.06.14.22.15.36,0,0,0,.02-.01.02-.34.19-.53.18-.89.53-.09.09-.13.11-.26.24l-.1.1c.11.21.15.24.32.41.74.74,1.79,1.19,2.85,1.05.5-.07.92-.2,1.32-.44.62-.32,1.15-.8,1.48-1.42.41-.79.42-1.69.15-2.52Z"/>
  </g>
  <g>
    <path class="cls-1" d="M9.9,21.89v.99s.01,2.48.01,2.48h-1.65v-9.06l1.59-.36.04.53h.01c.78-.38,1.66-.63,2.69-.63,2.56,0,3.72,1.53,3.72,3.57s-1.26,3.66-3.49,3.66c-1.58,0-2.57-.78-2.93-1.2h-.01ZM9.91,18.06v2.02c.07.47,1.35,1.19,2.72,1.19s2.01-.77,2.01-1.84-.53-1.77-2.2-1.77c-.84,0-1.72.2-2.53.4Z"/>
    <path class="cls-1" d="M25.47,22.88c-.56.13-1,.2-1.35.2-1.31,0-1.37-.78-1.41-1.2-.54.74-1.81,1.2-2.83,1.2-1.59,0-2.68-.87-2.68-2.48s1.41-2.12,2.82-2.12c.98,0,2.06.22,2.61.43-.06-.69-.6-1.24-2.11-1.24-1.21,0-2.18.27-2.43.38l-.53-1.71c.33-.14,1.55-.5,2.96-.5,2.77,0,3.77,1.41,3.77,3.28v1.68c0,.25.08.47.54.47.16,0,.37-.03.65-.09v1.69ZM20.17,21.42c1.06,0,2.41-.61,2.46-1.39v-.25h-2.71c-.53,0-1.04.16-1.04.69,0,.68.58.95,1.29.95Z"/>
    <path class="cls-1" d="M28.11,16.04h1.68v1.62h-1.68v3.01c0,.63.22.78.75.78.24,0,.55-.04.93-.07v1.5c-.53.12-1,.2-1.41.2-1.23,0-1.92-.63-1.92-2.41v-3.01h-.77v-1.62h.77v-1.45l1.65-.44v1.89Z"/>
    <path class="cls-1" d="M32.66,16.04h1.68v1.62h-1.68v3.01c0,.63.22.78.75.78.24,0,.55-.04.93-.07v1.5c-.53.12-1,.2-1.41.2-1.23,0-1.92-.63-1.92-2.41v-3.01h-.77v-1.62h.77v-1.49l1.65-.4v1.89Z"/>
    <path class="cls-1" d="M35.22,16.04h1.65v3.45c0,1.06.4,1.77,2.07,1.77,1.36,0,2.3-.72,2.36-1.19v-4.04h1.65v6.84h-1.45l-.11-.99h-.01c-.44.5-1.34,1.19-2.85,1.19-2.44,0-3.31-1.53-3.31-3.57v-3.47Z"/>
    <path class="cls-1" d="M44.16,20.72c1.56.4,2.46.55,3.6.55.59,0,2.3-.03,2.3-.55,0-.4-1.02-.37-2.22-.39-1.73-.05-3.83-.25-3.83-2.16,0-2.19,2.4-2.32,3.71-2.32,1.07,0,2.24.13,3.52.39l-.26,1.8c-1.41-.29-2.25-.36-3.55-.36-1.07,0-1.73.1-1.73.51,0,.46.96.46,2.1.47,1.75.03,3.95.12,3.95,2.06,0,2.27-3.02,2.37-4.17,2.37-1.31,0-2.3-.14-3.74-.57l.33-1.79Z"/>
    <polygon class="cls-1" points="40.63 14.55 40.26 15.41 37.52 14.18 37.86 12.74 40.63 14.55"/>
  </g>
  <g>
    <circle class="cls-1" cx="24.7" cy="26.61" r=".19"/>
    <g>
      <path class="cls-1" d="M16.54,25.81h.2v.69h.86v-.69h.2v1.63h-.2v-.76h-.86v.76h-.2v-1.63Z"/>
      <path class="cls-1" d="M18.08,26.63c0-.49.29-.85.77-.85s.77.36.77.85-.29.85-.77.85-.77-.36-.77-.85ZM19.41,26.63c0-.39-.19-.67-.56-.67s-.56.28-.56.67.19.67.56.67.56-.28.56-.67ZM18.76,25.36h.17l.29.3h-.19l-.18-.19h0l-.18.19h-.19l.29-.3Z"/>
      <path class="cls-1" d="M20.17,25.99h-.53v-.18h1.26v.18h-.53v1.45h-.2v-1.45Z"/>
      <path class="cls-1" d="M21.09,25.81h1.06v.18h-.86v.52h.81v.18h-.81v.59h.86v.18h-1.06v-1.63Z"/>
      <path class="cls-1" d="M22.44,25.81h.2v1.45h.8v.18h-1v-1.63Z"/>
    </g>
    <g>
      <path class="cls-1" d="M25.97,25.82h.2v1.45h.8v.18h-1v-1.63Z"/>
      <path class="cls-1" d="M27.67,25.82h.24l.6,1.63h-.22l-.17-.47h-.68l-.17.47h-.21l.6-1.63ZM28.08,26.8l-.22-.62-.06-.16h0c-.02.05-.04.11-.05.16l-.22.62h.56Z"/>
      <path class="cls-1" d="M28.56,26.63c0-.49.28-.85.76-.85.38,0,.64.23.68.56h-.2c-.05-.23-.21-.39-.48-.39-.37,0-.56.28-.56.67s.18.67.56.67c.27,0,.44-.16.48-.43h.2c-.04.37-.31.61-.69.61-.48,0-.76-.36-.76-.85Z"/>
      <path class="cls-1" d="M30.8,25.82h.23l.77,1.19.1.15h0v-1.34h.19v1.63h-.23l-.87-1.34h0v1.34h-.19v-1.63Z"/>
      <path class="cls-1" d="M32.42,25.82h1.06v.18h-.86v.52h.81v.18h-.81v.59h.86v.18h-1.06v-1.63Z"/>
      <path class="cls-1" d="M33.76,26.87v-1.05h.2v1.08c0,.26.16.41.43.41s.41-.14.41-.41v-1.08h.2v1.05c0,.43-.27.61-.62.61s-.62-.18-.62-.61Z"/>
      <path class="cls-1" d="M35.27,26.63c0-.49.28-.85.76-.85.38,0,.64.23.68.56h-.2c-.05-.23-.21-.39-.48-.39-.37,0-.56.28-.56.67s.18.67.56.67c.27,0,.44-.16.48-.43h.2c-.04.37-.31.61-.69.61-.48,0-.76-.36-.76-.85Z"/>
      <path class="cls-1" d="M36.99,25.82h.2v.69h.86v-.69h.2v1.63h-.2v-.76h-.86v.76h-.2v-1.63Z"/>
      <path class="cls-1" d="M39,25.82h.24l.6,1.63h-.22l-.17-.47h-.68l-.17.47h-.21l.6-1.63ZM39.04,25.37h.17l.29.3h-.19l-.18-.19h0l-.18.19h-.19l.29-.3ZM39.4,26.8l-.22-.62-.06-.16h0c-.02.05-.04.11-.05.16l-.22.62h.56Z"/>
      <path class="cls-1" d="M40.19,25.99h-.53v-.18h1.26v.18h-.53v1.45h-.2v-1.45Z"/>
      <path class="cls-1" d="M41.11,25.82h1.06v.18h-.86v.52h.81v.18h-.81v.59h.86v.18h-1.06v-1.63Z"/>
      <path class="cls-1" d="M42.46,25.82h.2v1.45h.8v.18h-1v-1.63Z"/>
    </g>
  </g>
</svg>